<?xml version="1.0" encoding="UTF-8" standalone="no"?>
<svg
   version="1.1"
   width="88px"
   height="88px"
   style="shape-rendering:geometricPrecision; text-rendering:geometricPrecision; image-rendering:optimizeQuality; fill-rule:evenodd; clip-rule:evenodd"
   id="svg16"
   sodipodi:docname="deside_logo.svg"
   inkscape:version="1.4.1-rc (06eac75fbf, 2025-03-29)"
   xmlns:inkscape="http://www.inkscape.org/namespaces/inkscape"
   xmlns:sodipodi="http://sodipodi.sourceforge.net/DTD/sodipodi-0.dtd"
   xmlns="http://www.w3.org/2000/svg"
   xmlns:svg="http://www.w3.org/2000/svg">
  <defs
     id="defs16" />
  <sodipodi:namedview
     id="namedview16"
     pagecolor="#ffffff"
     bordercolor="#000000"
     borderopacity="0.25"
     inkscape:showpageshadow="2"
     inkscape:pageopacity="0.0"
     inkscape:pagecheckerboard="0"
     inkscape:deskcolor="#d1d1d1"
     inkscape:zoom="6.5166318"
     inkscape:cx="39.130644"
     inkscape:cy="42.506621"
     inkscape:window-width="1920"
     inkscape:window-height="1043"
     inkscape:window-x="1920"
     inkscape:window-y="0"
     inkscape:window-maximized="1"
     inkscape:current-layer="svg16" />
  <g
     id="g3"
     transform="matrix(0.92850462,0,0,0.92850462,5.160746,3.751778)"
     style="fill:#ffffff;fill-opacity:1">
    <path
       style="opacity:1;fill:#ffffff;fill-opacity:1"
       fill="#073e62"
       d="m 43.5,-0.5 c 0.6667,0 1.3333,0 2,0 1.468,1.279138 2.1347,2.9458 2,5 1,0 2,0 3,0 -0.17,1.32207 0.1634,2.48873 1,3.5 3.0117,0.7804 5.8451,1.94706 8.5,3.5 0.6838,1.2839 0.5171,2.4505 -0.5,3.5 2.7356,1.3622 5.0689,3.1956 7,5.5 -3.127,5.42 -6.127,10.92 -9,16.5 -6.6583,0.4996 -13.325,0.6663 -20,0.5 1.7646,-0.9614 3.7646,-1.2947 6,-1 0,-8.3333 0,-16.6667 0,-25 4.6747,0.2941 9.1747,1.2941 13.5,3 0.5,-0.5 1,-1 1.5,-1.5 -4.3456,-1.836 -8.679,-3.33602 -13,-4.5 0.7389,0.13101 1.4056,-0.03566 2,-0.5 -1.2932,-0.49001 -2.6266,-0.65668 -4,-0.5 0,-2.66667 0,-5.33333 0,-8 z"
       id="path3" />
  </g>
  <g
     id="g4"
     transform="matrix(0.92850462,0,0,0.92850462,5.160746,3.751778)"
     style="fill:#c6c4c8;fill-opacity:1">
    <path
       style="opacity:1;fill:#c6c4c8;fill-opacity:1"
       fill="#032342"
       d="m 40.5,-0.5 c 1,0 2,0 3,0 0,2.66667 0,5.33333 0,8 1.3734,-0.15668 2.7068,0.00999 4,0.5 -0.5944,0.46434 -1.2611,0.63101 -2,0.5 -5.8805,-0.15475 -11.3805,1.17859 -16.5,4 -0.6667,0.6667 -0.6667,1.3333 0,2 4.6103,-1.9556 9.4437,-2.9556 14.5,-3 0,8.3333 0,16.6667 0,25 -2.2354,-0.2947 -4.2354,0.0386 -6,1 -3.0719,0.3174 -6.0719,-0.0159 -9,-1 -2.4934,-5.6572 -5.4934,-10.9905 -9,-16 2.0241,-1.8581 4.1908,-3.5248 6.5,-5 0,-1.3333 0,-2.6667 0,-4 2.6549,-1.55294 5.4883,-2.7196 8.5,-3.5 0.8366,-1.01127 1.17,-2.17793 1,-3.5 1,0 2,0 3,0 -0.1347,-2.0542 0.532,-3.720862 2,-5 z"
       id="path4" />
  </g>
  <g
     id="g6"
     transform="matrix(0.92850462,0,0,0.92850462,5.160746,3.751778)">
    <path
       style="opacity:1"
       fill="#4d8c9d"
       d="m 37.5,38.5 c 12.3378,-0.1665 24.6712,1e-4 37,0.5 -8.1772,0.1708 -16.1772,0.6708 -24,1.5 -4.3333,0 -8.6667,0 -13,0 -8.4903,-0.8296 -17.157,-1.3296 -26,-1.5 8.6603,-0.4998 17.3269,-0.6664 26,-0.5 z"
       id="path6" />
  </g>
  <g
     id="g7"
     transform="matrix(0.92850462,0,0,0.92850462,5.160746,3.751778)">
    <path
       style="opacity:1"
       fill="#5ba760"
       d="m 37.5,40.5 c 4.3333,0 8.6667,0 13,0 -3.8727,1.9302 -8.206,2.5969 -13,2 0,-0.6667 0,-1.3333 0,-2 z"
       id="path7" />
  </g>
  <g
     id="g8"
     transform="matrix(0.92850462,0,0,0.92850462,5.160746,3.751778)">
    <path
       style="opacity:1"
       fill="#59ac3d"
       d="m 37.5,43.5 c 4.8614,-0.4366 9.5281,0.0634 14,1.5 -4.6548,0.4992 -9.3215,0.6658 -14,0.5 0,-0.6667 0,-1.3333 0,-2 z"
       id="path8" />
  </g>
  <g
     id="g9"
     transform="matrix(0.92850462,0,0,0.92850462,5.160746,3.751778)">
    <path
       style="opacity:1"
       fill="#56ac32"
       d="m 52.5,47.5 c 0.3333,0.6667 0.6667,1.3333 1,2 -5.044,0.3275 -10.044,-0.0059 -15,-1 4.6196,-0.9933 9.2863,-1.3266 14,-1 z"
       id="path9" />
  </g>
  <g
     id="g10"
     transform="matrix(0.92850462,0,0,0.92850462,5.160746,3.751778)">
    <path
       style="opacity:1"
       fill="#d1b84a"
       d="m 34.5,47.5 c 1,0 2,0 3,0 0,1 0,2 0,3 -1.3333,0 -2.6667,0 -4,0 0.0569,-1.109 0.3902,-2.109 1,-3 z"
       id="path10" />
  </g>
  <g
     id="g11"
     transform="matrix(0.92850462,0,0,0.92850462,5.160746,3.751778)">
    <path
       style="opacity:1"
       fill="#518ab3"
       d="m 19.5,47.5 c 5.4753,-0.9889 11.142,-1.3222 17,-1 11.9208,-1.0929 17.2542,-0.7595 16,1 -4.7137,-0.3266 -9.3804,0.0067 -14,1 4.956,0.9941 9.956,1.3275 15,1 2.131,0.8138 4.4644,1.3138 7,1.5 -1.6341,0.4935 -3.3008,0.6602 -5,0.5 -5.6667,0 -11.3333,0 -17,0 -2.3333,0 -4.6667,0 -7,0 -2.6873,0.1641 -5.354,-0.0026 -8,-0.5 3.3168,-0.4983 6.6501,-0.665 10,-0.5 1.3333,0 2.6667,0 4,0 0,-1 0,-2 0,-3 -1,0 -2,0 -3,0 -4.3333,0 -8.6667,0 -13,0 -0.6667,0 -1.3333,0 -2,0 z"
       id="path11" />
  </g>
  <g
     id="g12"
     transform="matrix(0.92850462,0,0,0.92850462,5.160746,3.751778)">
    <path
       style="opacity:1"
       fill="#ffc015"
       d="m 19.5,47.5 h 2 v 8 c 3.9748,0.0141 7.3082,-1.3193 10,-4 h 7 c 0.8507,2.3816 2.184,4.3816 4,6 l 1,1.8898 -3,3.1102 c -5.6348,3.9884 -11.9682,5.9884 -19,6 0.3134,2.7469 -0.02,5.4135 -1,8 -5.6667,-4.6667 -11.33333,-9.3333 -17,-14 5.43972,-5.0233 10.7731,-10.0233 16,-15 z"
       id="path12"
       sodipodi:nodetypes="cccccccccccc" />
  </g>
  <g
     id="g14"
     transform="matrix(0.92850462,0,0,0.92850462,5.160746,3.751778)">
    <path
       style="opacity:1"
       fill="#50a731"
       d="m 48.5,63.5 c -4.247612,-3.287113 -3.842207,-3.712881 -6,-6 -1.669288,-1.769336 -3.1493,-3.6184 -4,-6 h 17 c 2.8695,3.258 6.5361,4.5914 11,4 -0.3076,-2.424 0.0258,-4.7573 1,-7 5.6549,4.323 10.9882,8.9897 16,14 -5.3671,4.7751 -10.8671,9.4418 -16.5,14 -0.4974,-2.646 -0.6641,-5.3127 -0.5,-8 -6.608,0.3506 -12.835538,-1.003362 -18,-5 z"
       id="path14"
       sodipodi:nodetypes="sscccccccs" />
  </g>
  <g
     id="g15"
     transform="matrix(0.92850462,0,0,0.92850462,5.160746,3.751778)" />
  <g
     id="g16"
     transform="matrix(0.92850462,0,0,0.92850462,5.160746,3.751778)">
    <path
       style="opacity:1"
       fill="#bf0804"
       d="m 43.5,59.3898 5,4.1102 c 0.888,2.5545 1.2214,5.2212 1,8 2.3568,-0.1633 4.6902,0.0034 7,0.5 -3.8859,5.0459 -8.746188,10.2126 -12.193588,15.5 L 41.756473,84.461776 C 37.589273,79.456676 34.3328,77.3282 30.5,72 c 2.3098,-0.4966 4.6432,-0.6633 7,-0.5 -0.5762,-3.6125 -0.0762,-5.6125 2.5,-8 z"
       id="path16"
       sodipodi:nodetypes="cccccccccc" />
  </g>
</svg>
